<?xml version="1.0" standalone="no"?>
<!DOCTYPE svg PUBLIC "-//W3C//DTD SVG 20010904//EN"
 "http://www.w3.org/TR/2001/REC-SVG-20010904/DTD/svg10.dtd">
<svg version="1.0" xmlns="http://www.w3.org/2000/svg"
 width="390.000000pt" height="390.000000pt" viewBox="0 0 390.000000 390.000000"
 preserveAspectRatio="xMidYMid meet">
<metadata>
Created by potrace 1.14, written by Peter Selinger 2001-2017
</metadata>
<g transform="translate(0.000000,390.000000) scale(0.100000,-0.100000)"
fill="#000000" stroke="none">
<path d="M610 2209 c-42 -13 -98 -53 -132 -94 -81 -98 -71 -272 21 -354 69
-62 102 -75 186 -76 58 0 90 5 117 19 101 49 159 146 154 255 -2 36 -10 82
-19 102 -20 46 -91 116 -136 136 -45 19 -145 25 -191 12z"/>
<path d="M1140 2188 c-130 -65 -186 -216 -126 -343 28 -61 56 -92 116 -131 40
-25 54 -28 125 -28 90 -1 142 20 197 76 127 130 91 345 -72 429 -31 15 -66 23
-112 25 -58 3 -75 -1 -128 -28z"/>
<path d="M3591 2203 c-74 -15 -124 -71 -127 -141 -4 -87 28 -118 162 -156 106
-31 145 -56 137 -86 -20 -77 -172 -76 -204 2 -12 29 -14 30 -63 23 -28 -3 -52
-8 -54 -10 -2 -2 5 -23 16 -48 22 -49 68 -88 126 -107 47 -15 153 -7 195 14
49 26 83 78 86 136 4 46 1 53 -33 89 -27 29 -52 43 -97 56 -143 39 -160 47
-163 82 -3 26 2 34 25 46 51 26 139 0 150 -44 5 -17 11 -19 52 -13 59 8 63 11
55 37 -12 38 -48 79 -89 100 -39 20 -125 30 -174 20z"/>
<path d="M50 1940 l0 -260 50 0 50 0 0 105 0 105 88 0 88 0 -2 43 c-1 23 -3
45 -3 50 -1 4 -39 7 -86 7 l-85 0 0 55 0 54 108 3 107 3 3 48 3 47 -160 0
-161 0 0 -260z"/>
<path d="M1610 1941 l0 -261 111 0 c137 0 186 12 234 57 56 52 79 113 77 203
-1 86 -23 149 -68 193 -53 53 -79 61 -221 65 l-133 4 0 -261z m263 143 c86
-63 68 -274 -26 -302 -18 -6 -56 -10 -84 -10 l-53 -1 0 169 0 169 68 -3 c49
-2 76 -8 95 -22z"/>
<path d="M2150 1940 l0 -260 170 0 170 0 0 45 0 45 -120 0 -121 0 3 68 3 67
85 1 c47 1 90 2 96 3 13 1 13 81 -1 82 -5 1 -44 3 -85 4 -41 1 -81 3 -87 4 -9
1 -13 19 -13 55 l0 53 98 1 c156 0 142 -4 142 47 l0 45 -170 0 -170 0 0 -260z"/>
<path d="M2697 2193 c-3 -4 -37 -116 -77 -248 -40 -132 -75 -246 -77 -252 -4
-9 9 -13 45 -13 53 0 60 8 77 81 6 26 7 26 104 26 l98 0 17 -53 17 -54 50 0
c27 0 49 2 49 4 0 3 -89 294 -137 451 l-19 60 -71 3 c-39 2 -73 -1 -76 -5z
m102 -180 c12 -40 26 -86 31 -103 l9 -30 -69 0 -69 0 16 53 c8 28 19 60 24 70
6 9 7 17 4 17 -3 0 1 15 9 34 8 19 13 36 12 39 -2 2 0 2 4 -2 4 -3 17 -39 29
-78z"/>
<path d="M2980 2155 c0 -50 -4 -48 96 -46 43 2 63 -2 66 -11 2 -7 3 -104 3
-215 l-1 -203 48 0 48 0 1 63 c0 34 0 130 0 213 0 150 0 151 22 151 12 1 49 1
82 2 l61 1 -1 43 0 42 -212 3 -213 2 0 -45z"/>
</g>
</svg>
